<?xml version="1.0" standalone="no"?>
<!DOCTYPE svg PUBLIC "-//W3C//DTD SVG 20010904//EN"
 "http://www.w3.org/TR/2001/REC-SVG-20010904/DTD/svg10.dtd">
<svg version="1.0" xmlns="http://www.w3.org/2000/svg"
 width="636.000000pt" height="636.000000pt" viewBox="0 0 636.000000 636.000000"
 preserveAspectRatio="xMidYMid meet">
<metadata>
Created by potrace 1.11, written by Peter Selinger 2001-2013
</metadata>
<g transform="translate(0.000000,636.000000) scale(0.100000,-0.100000)"
fill="#000000" stroke="none">
<path d="M3046 5603 c-1 -1 -43 -3 -93 -4 -87 -1 -92 -2 -97 -25 -8 -29 -28
-40 -91 -48 -27 -4 -70 -12 -95 -18 -25 -6 -55 -12 -67 -13 -12 -2 -26 -6 -31
-9 -5 -3 -22 -7 -39 -10 -66 -12 -278 -83 -358 -121 -163 -76 -312 -152 -325
-165 -3 -3 -45 -32 -95 -64 -49 -32 -91 -63 -93 -68 -2 -4 -10 -8 -17 -8 -7 0
-15 -3 -17 -7 -1 -5 -25 -26 -53 -48 -110 -87 -240 -214 -343 -335 -80 -93
-77 -90 -112 -140 -14 -19 -27 -37 -30 -40 -7 -7 -82 -120 -96 -145 -6 -11
-27 -47 -46 -81 -46 -79 -111 -214 -138 -284 -11 -30 -25 -64 -30 -75 -15 -34
-78 -238 -83 -272 -3 -17 -8 -36 -11 -41 -2 -4 -8 -31 -12 -58 -3 -27 -8 -52
-10 -55 -4 -8 -18 -93 -31 -199 -9 -76 -10 -473 0 -540 4 -30 10 -73 13 -95
15 -131 67 -344 115 -481 34 -98 123 -302 151 -349 10 -16 23 -41 29 -55 5
-13 13 -27 17 -30 4 -3 18 -27 32 -53 28 -54 171 -256 213 -301 31 -33 33 -49
12 -89 -29 -57 -27 -60 50 -60 l70 1 60 -59 c83 -81 131 -123 195 -172 30 -23
57 -45 60 -48 11 -13 190 -129 199 -129 5 0 11 -4 13 -9 3 -10 199 -113 295
-155 127 -55 353 -132 353 -119 0 3 7 0 15 -7 8 -7 15 -10 15 -6 0 3 11 1 24
-4 23 -8 205 -43 295 -55 88 -13 180 -17 326 -17 195 1 304 10 450 38 17 3 39
7 50 9 19 4 37 7 97 21 15 3 31 6 35 6 5 0 14 4 21 10 6 6 12 8 12 4 0 -3 11
-1 25 4 14 5 36 12 48 14 93 19 487 187 487 208 0 4 6 8 13 8 13 0 202 115
225 136 6 7 21 16 32 19 11 3 20 10 20 15 0 5 15 18 33 29 17 11 46 32 62 46
75 64 155 137 192 175 l41 41 87 -3 c82 -3 86 -2 80 17 -3 11 -7 25 -9 30 -4
13 -15 44 -26 72 -8 18 -1 32 34 75 78 97 186 262 234 358 9 19 19 37 22 40 7
7 80 158 80 166 0 3 7 20 15 37 48 105 120 338 140 452 3 17 10 53 15 80 5 28
12 68 15 90 2 22 8 67 12 100 10 80 10 419 0 520 -10 103 -13 125 -31 215 -35
174 -47 223 -59 238 -5 6 -7 12 -4 12 7 0 -55 185 -79 237 -7 17 -14 33 -14
36 0 14 -93 200 -139 280 -28 49 -51 92 -51 97 0 5 -4 10 -8 12 -5 2 -28 32
-52 68 -106 158 -311 386 -450 500 -30 25 -60 49 -66 55 -6 5 -22 17 -34 25
-12 8 -28 20 -34 25 -6 6 -27 22 -46 35 -19 13 -37 27 -40 30 -3 3 -16 11 -30
19 -14 8 -54 33 -90 55 -135 83 -317 167 -475 221 -60 20 -117 40 -125 43 -8
3 -20 6 -26 7 -6 2 -49 12 -95 23 -87 21 -160 36 -206 41 -6 0 -16 15 -22 31
-11 33 -43 50 -78 41 -12 -3 -113 -4 -223 -1 -111 3 -203 4 -204 3z"/>
</g>
</svg>
